<?xml version="1.0" standalone="no"?>
<!DOCTYPE svg PUBLIC "-//W3C//DTD SVG 20010904//EN"
 "http://www.w3.org/TR/2001/REC-SVG-20010904/DTD/svg10.dtd">
<svg version="1.0" xmlns="http://www.w3.org/2000/svg"
 width="700.000000pt" height="700.000000pt" viewBox="0 0 700.000000 700.000000"
 preserveAspectRatio="xMidYMid meet">
<metadata>
Created by potrace 1.11, written by Peter Selinger 2001-2013
</metadata>
<g transform="translate(0.000000,700.000000) scale(0.100000,-0.100000)"
fill="#000000" stroke="none">
<path d="M0 6958 l0 -43 51 -2 c60 -2 107 -33 133 -86 22 -47 22 -186 0 -233
-25 -53 -66 -82 -129 -89 l-55 -7 0 -158 c0 -149 1 -158 20 -163 19 -5 20 -14
20 -234 0 -272 2 -277 77 -281 54 -3 80 -21 69 -47 -9 -24 -120 -20 -157 6
l-29 20 0 -270 0 -271 55 0 c70 0 105 -16 105 -48 0 -21 -3 -23 -22 -17 -13 4
-49 9 -81 12 l-57 5 0 -59 0 -60 60 -12 c72 -14 109 -43 116 -92 13 -77 -48
-139 -136 -139 l-40 0 0 -250 0 -250 35 0 35 0 2 -177 3 -178 63 -3 c54 -3 62
-6 62 -22 0 -19 -7 -20 -100 -20 l-100 0 0 -320 c0 -176 2 -320 4 -320 4 0 35
64 98 203 28 60 34 67 60 67 15 0 28 -2 28 -4 0 -7 -35 -84 -90 -201 -111
-234 -100 -176 -100 -526 l0 -309 55 0 c74 0 105 -15 105 -52 0 -33 0 -33 -47
-13 -19 8 -53 15 -75 15 l-39 0 3 -57 3 -58 65 -16 c76 -20 110 -52 110 -104
0 -77 -42 -118 -132 -130 l-48 -7 2 -274 3 -275 90 -35 c117 -46 120 -47 123
-75 2 -21 -6 -27 -70 -53 -40 -16 -90 -36 -111 -45 l-37 -16 2 -310 3 -310 30
-3 c16 -2 40 -13 54 -23 25 -20 25 -20 33 0 5 15 16 21 38 21 l31 0 -3 -217
c-3 -251 -11 -280 -83 -320 l-40 -23 3468 0 3467 0 0 3500 c0 3493 0 3500 -20
3500 -19 0 -20 -7 -20 -245 l0 -245 -30 0 c-23 0 -30 4 -30 20 0 25 -4 25 -39
-1 -38 -28 -124 -28 -160 -1 -38 28 -65 89 -69 160 -6 81 13 145 53 188 30 31
37 34 92 34 45 0 67 -5 86 -20 14 -11 28 -20 31 -20 3 0 6 29 6 65 l0 65 -900
0 -900 0 0 -75 0 -75 -30 0 -30 0 0 75 0 75 -40 0 -40 0 0 -75 0 -75 -30 0
-30 0 0 75 0 75 -631 0 -630 0 3 -42 3 -43 78 -3 c69 -3 77 -5 77 -22 0 -22
-19 -29 -100 -32 l-55 -3 -3 -110 c-4 -161 6 -185 83 -185 56 0 75 -8 75 -31
0 -17 -8 -19 -71 -19 -83 0 -123 18 -139 63 -5 17 -10 88 -10 158 l0 128 -52
3 c-46 3 -53 6 -56 26 -3 21 0 22 52 22 l56 0 0 45 0 45 -640 0 -640 0 0 -198
c0 -233 0 -233 84 -240 51 -4 56 -7 56 -28 0 -23 -3 -24 -65 -24 -56 0 -69 3
-95 28 -43 37 -49 77 -50 285 l0 177 -860 0 -859 0 -7 -34 c-3 -19 -3 -39 1
-45 3 -6 37 -11 76 -11 67 0 70 -1 67 -22 -3 -21 -9 -23 -68 -26 -36 -2 -68
-8 -72 -15 -4 -7 -8 -85 -8 -174 l0 -163 -30 0 -30 0 0 175 0 175 -39 0 c-52
0 -71 8 -71 31 0 16 8 19 55 19 54 0 55 0 55 29 0 16 3 36 6 45 5 14 -18 16
-220 16 l-226 0 0 -42z m1485 -67 c55 -31 65 -68 65 -233 l0 -148 -30 0 c-22
0 -30 5 -30 18 0 31 -11 33 -41 8 -58 -49 -169 -42 -208 13 -26 37 -29 125 -5
160 27 38 90 61 171 61 39 0 74 4 77 9 13 21 -15 62 -51 78 -38 15 -75 13
-170 -13 -18 -5 -23 -2 -23 14 0 28 21 42 77 52 61 11 130 3 168 -19z m1345 9
c8 -5 26 -20 40 -35 24 -26 25 -31 28 -191 l3 -164 -30 0 c-23 0 -31 5 -31 18
0 29 -10 32 -33 11 -12 -11 -39 -24 -60 -30 -96 -26 -177 29 -177 118 0 96 62
143 191 143 53 0 71 4 75 15 10 25 -23 63 -65 76 -38 11 -71 8 -153 -17 -14
-4 -18 1 -18 20 0 14 5 28 11 31 35 22 180 25 219 5z m469 -9 c46 -32 66 -87
66 -181 0 -95 -20 -148 -68 -184 -40 -30 -124 -28 -163 3 l-29 23 -3 -101 -3
-101 -29 0 -30 0 0 280 0 280 29 0 c22 0 30 -5 33 -21 l3 -21 25 20 c44 35
122 36 169 3z m894 1 c46 -28 72 -94 72 -187 -1 -114 -37 -174 -119 -196 -83
-22 -165 12 -203 85 -22 42 -22 189 -1 231 23 43 61 76 100 85 43 11 116 2
151 -18z m460 0 c95 -57 95 -297 0 -367 -39 -28 -122 -27 -163 3 l-30 23 0
-101 0 -100 -30 0 -30 0 0 280 0 280 29 0 c22 0 30 -5 33 -21 l3 -21 25 20
c14 11 34 22 45 25 29 8 86 -2 118 -21z m1102 -64 c10 -46 24 -108 31 -138 8
-30 14 -62 14 -72 0 -10 4 -18 8 -18 12 0 26 34 47 118 17 63 22 72 42 72 27
0 32 -11 64 -120 19 -68 22 -73 35 -55 8 10 14 27 14 38 0 10 6 45 14 76 8 31
20 84 27 119 12 58 15 62 41 62 15 0 28 -2 28 -5 0 -3 -11 -54 -25 -113 -28
-119 -53 -225 -61 -259 -3 -18 -11 -23 -35 -23 -16 0 -31 6 -33 13 -2 6 -11
35 -19 62 -9 28 -21 70 -27 94 -7 27 -15 40 -21 34 -5 -5 -22 -51 -37 -103
-27 -92 -29 -95 -59 -98 -28 -3 -32 0 -38 30 -12 63 -38 174 -61 267 -13 51
-24 95 -24 97 0 2 13 4 28 4 28 0 29 -3 47 -82z m635 -82 c0 -90 3 -171 6
-180 5 -12 21 -16 65 -16 52 0 59 -2 59 -20 0 -19 -7 -20 -160 -20 -152 0
-160 1 -160 20 0 16 8 19 63 22 l62 3 0 155 0 155 -47 3 c-40 3 -48 6 -48 23
0 17 7 19 80 19 l80 0 0 -164z m-122 -678 c1 -61 7 -108 12 -108 6 0 10 4 10
10 0 34 127 53 168 24 45 -31 52 -62 52 -234 l0 -160 -30 0 -30 0 0 135 c0
153 -12 199 -55 215 -37 14 -71 3 -100 -32 -24 -29 -25 -35 -25 -174 l0 -144
-35 0 -35 0 0 283 c0 156 3 287 7 291 4 4 19 6 33 4 25 -3 25 -4 28 -110z
m-524 73 c6 -9 31 -210 43 -339 7 -79 23 -68 42 28 33 171 28 160 71 160 37 0
40 -2 48 -37 25 -100 42 -182 42 -197 0 -9 4 -16 9 -16 5 0 12 28 16 63 3 34
10 87 15 117 5 30 12 92 15 138 8 88 15 99 58 88 27 -6 27 8 -7 -216 -9 -58
-23 -152 -32 -210 -8 -58 -19 -109 -23 -113 -5 -5 -21 -7 -37 -5 -22 2 -29 10
-35 33 -4 17 -20 84 -35 150 -26 115 -28 119 -40 90 -7 -17 -19 -61 -27 -100
-41 -188 -35 -175 -72 -175 -33 0 -34 2 -43 53 -6 28 -18 104 -27 167 -9 63
-24 157 -32 208 -8 51 -12 99 -9 107 6 16 51 21 60 6z m-3304 -9 c0 -5 -8 -26
-19 -48 -38 -80 -138 -294 -197 -421 -19 -43 -40 -88 -46 -100 -10 -21 -58
-34 -58 -17 0 4 15 39 34 78 46 97 106 225 151 321 69 150 85 181 92 188 9 10
43 9 43 -1z m-1850 -145 c45 -30 68 -72 72 -132 l3 -50 -142 -3 -143 -3 0 -30
c0 -97 99 -145 215 -104 54 20 55 19 55 -14 0 -25 -6 -31 -37 -42 -21 -7 -70
-13 -110 -13 -61 1 -78 5 -112 27 -57 38 -83 93 -83 176 1 75 18 124 59 163
38 36 67 47 134 47 42 1 64 -5 89 -22z m230 12 c8 0 32 3 52 7 29 5 43 1 63
-14 26 -21 26 -21 46 -1 25 25 83 25 108 0 29 -29 36 -78 36 -241 l0 -145 -30
0 -30 0 -5 168 c-4 134 -8 170 -20 177 -21 14 -31 12 -52 -7 -16 -14 -18 -34
-18 -180 l0 -163 -30 0 -30 0 0 139 c0 170 -5 199 -38 214 -21 10 -27 8 -43
-12 -17 -21 -19 -41 -19 -182 l0 -159 -30 0 -30 0 0 198 c0 109 3 202 7 206 4
4 17 4 28 1 11 -4 27 -7 35 -6z m669 0 c25 -9 31 -16 31 -40 0 -34 4 -33 -50
-14 -59 21 -102 19 -134 -6 -28 -22 -34 -60 -13 -78 8 -6 42 -18 78 -26 84
-21 108 -34 125 -67 18 -35 18 -72 -1 -108 -24 -46 -68 -64 -155 -63 -100 1
-130 13 -130 53 0 30 16 40 36 20 6 -6 39 -13 75 -16 80 -6 113 8 117 53 4 39
-16 53 -110 78 -86 23 -113 50 -112 110 1 48 13 69 59 97 35 21 133 25 184 7z
m2798 -10 c6 -32 -12 -42 -182 -101 -33 -11 -64 -24 -70 -29 -5 -5 -17 -9 -27
-9 -10 0 -18 -5 -18 -10 0 -13 35 -28 217 -95 71 -26 98 -54 76 -76 -5 -5 -82
20 -191 63 -174 69 -182 73 -182 99 0 15 6 31 13 36 25 16 342 141 352 139 6
-2 11 -9 12 -17z m1151 -44 c202 -79 196 -76 200 -108 3 -24 -3 -29 -50 -50
-29 -13 -69 -30 -88 -37 -38 -14 -61 -24 -158 -64 -79 -32 -82 -32 -82 2 0 26
6 30 118 70 143 53 182 69 182 79 0 5 -19 14 -42 21 -24 8 -56 19 -73 26 -16
7 -50 21 -75 31 -104 40 -110 44 -110 70 0 14 3 25 6 25 3 0 81 -29 172 -65z
m1451 47 c69 -35 76 -54 76 -230 l0 -157 -32 -3 c-30 -3 -33 -1 -33 23 l0 26
-32 -25 c-40 -30 -110 -40 -158 -23 -71 25 -103 125 -61 193 28 45 76 64 165
64 85 0 100 11 76 56 -26 47 -86 53 -207 18 -20 -6 -23 -3 -23 24 0 26 5 31
38 40 62 17 153 14 191 -6z m-4859 -12 c0 -11 -8 -23 -17 -26 -10 -4 -31 -12
-48 -19 -16 -7 -50 -20 -75 -29 -25 -8 -63 -22 -85 -31 -22 -9 -48 -18 -57
-22 -40 -13 -10 -33 130 -85 125 -46 147 -58 150 -77 3 -21 1 -22 -30 -16 -18
4 -37 11 -43 14 -5 4 -32 16 -60 26 -27 9 -63 23 -80 30 -16 7 -60 25 -97 40
-55 23 -68 32 -68 50 0 22 7 26 120 72 19 8 43 18 52 23 10 6 23 10 29 10 10
0 34 10 114 46 44 20 65 18 65 -6z m1530 -11 c41 -17 89 -37 107 -45 17 -8 36
-14 42 -14 6 0 19 -4 29 -10 9 -5 34 -16 55 -25 33 -12 38 -18 35 -42 -3 -25
-13 -31 -108 -68 -58 -23 -114 -45 -125 -50 -55 -23 -117 -45 -125 -45 -6 0
-10 11 -10 24 0 16 7 25 23 29 24 5 149 51 182 66 11 5 37 15 58 21 20 6 37
17 37 23 0 7 -53 32 -118 56 -169 63 -182 69 -182 91 0 27 13 25 100 -11z
m272 -530 c516 -35 1017 -150 1392 -320 61 -28 116 -53 122 -55 6 -3 14 4 17
16 4 17 12 21 34 18 24 -2 29 -9 33 -38 5 -34 6 -34 18 -13 18 32 64 53 117
53 58 0 85 -14 85 -44 0 -29 -10 -39 -26 -25 -20 16 -111 13 -140 -6 l-25 -16
98 -61 c54 -34 109 -70 122 -80 13 -10 27 -18 32 -18 5 0 10 55 11 122 3 110
5 123 21 126 10 2 24 -4 31 -13 11 -15 13 -15 25 -1 19 23 80 20 106 -4 l22
-20 18 20 c21 23 80 27 107 7 28 -22 39 -94 36 -247 l-3 -145 -25 0 -25 0 -5
165 c-3 91 -9 171 -13 178 -5 6 -19 12 -31 12 -45 0 -51 -22 -54 -194 -2 -89
-8 -163 -12 -166 -5 -3 25 -44 66 -90 128 -143 215 -289 264 -442 24 -75 12
-71 105 -33 17 7 53 21 80 30 28 10 54 22 59 27 6 4 20 8 33 8 38 0 28 -51
-12 -63 -19 -5 -149 -53 -207 -76 -30 -11 -36 -32 -15 -49 7 -6 64 -30 127
-53 118 -44 130 -51 130 -81 0 -26 -20 -23 -128 22 -53 21 -103 41 -110 42
-10 2 -14 -22 -18 -99 -8 -184 -73 -373 -187 -549 -137 -211 -417 -439 -736
-598 l-111 -56 0 -42 c0 -59 31 -322 38 -330 6 -6 169 53 267 97 67 29 75 29
75 -2 0 -28 -5 -31 -145 -83 -80 -30 -145 -60 -145 -65 0 -6 17 -17 38 -24 20
-7 54 -19 75 -27 34 -13 60 -23 145 -54 26 -10 32 -18 32 -42 0 -20 -4 -28
-12 -25 -7 3 -78 30 -156 62 -79 31 -147 54 -150 50 -14 -14 56 -247 132 -440
60 -149 80 -211 71 -213 -24 -6 -478 88 -580 119 -321 99 -533 276 -729 608
l-61 103 -55 -5 c-30 -3 -125 -11 -210 -17 -198 -15 -192 -13 -209 -52 -8 -18
-35 -76 -59 -128 -24 -52 -56 -121 -71 -152 -20 -45 -31 -58 -48 -58 -13 0
-23 4 -23 9 0 8 51 121 127 279 19 41 33 75 31 77 -2 2 -86 5 -188 7 l-185 3
-92 -35 c-51 -19 -93 -40 -93 -46 0 -7 17 -18 38 -24 20 -6 51 -18 69 -26 17
-8 38 -14 46 -14 9 0 19 -5 22 -10 3 -5 13 -10 21 -10 8 0 35 -9 60 -20 30
-14 44 -27 44 -40 0 -11 -4 -20 -10 -20 -10 0 -99 33 -135 50 -11 5 -56 23
-100 40 -115 44 -125 50 -125 77 0 18 9 27 38 39 20 8 45 19 54 24 10 6 26 10
35 10 15 1 16 2 3 9 -26 14 -262 34 -269 22 -5 -7 -20 -5 -46 4 -63 22 -112
19 -140 -10 -48 -47 -24 -79 76 -102 95 -21 129 -52 129 -115 0 -85 -53 -123
-172 -121 -93 2 -118 13 -118 53 0 17 1 30 3 30 1 0 20 -7 42 -15 82 -29 165
-14 178 34 10 41 -35 71 -146 96 -16 3 -40 17 -53 30 -31 31 -33 100 -5 137
l19 24 -151 33 c-485 106 -903 283 -1229 523 -107 78 -288 262 -356 360 -193
281 -245 591 -150 893 30 94 96 221 166 318 71 100 224 253 330 332 45 33 81
63 82 66 0 4 -14 12 -30 19 -39 16 -50 37 -50 93 0 71 51 107 154 107 81 0
116 -14 116 -48 0 -21 -3 -23 -22 -18 -13 4 -49 10 -80 13 -71 7 -108 -12
-108 -56 0 -35 17 -50 63 -58 29 -4 47 1 94 30 363 219 900 388 1433 452 291
34 649 44 932 24z m-2992 -266 c0 -54 5 -105 10 -113 5 -8 10 -10 10 -5 0 20
58 45 102 45 98 0 148 -69 148 -205 0 -97 -23 -155 -72 -185 -56 -34 -149 -22
-180 24 -4 5 -10 -2 -14 -18 -5 -22 -11 -27 -33 -24 l-26 3 -3 275 c-1 151 0
280 3 287 2 7 16 13 30 13 l25 0 0 -97z m5972 -142 c4 -278 3 -278 92 -283 47
-3 51 -5 51 -28 0 -23 -4 -25 -47 -28 -57 -4 -111 18 -135 54 -16 24 -19 57
-23 249 l-5 220 -50 5 c-42 4 -50 8 -53 28 -3 21 -1 22 82 22 l85 0 3 -239z
m-6422 -48 c1 -65 5 -138 9 -163 16 -81 83 -105 143 -51 l33 29 5 149 5 148
28 3 27 3 0 -205 0 -206 -30 0 c-25 0 -30 4 -30 25 0 14 -3 25 -6 25 -3 0 -19
-11 -36 -25 -23 -19 -41 -25 -79 -25 -103 0 -129 53 -129 265 0 72 3 135 7
138 3 4 17 7 30 7 23 0 23 -1 23 -117z m6060 -88 c0 -25 0 -25 -95 -25 -95 0
-95 0 -95 25 0 25 0 25 95 25 95 0 95 0 95 -25z m-6382 -572 c-3 -33 -6 -38
-28 -38 -22 0 -25 5 -28 38 -3 35 -2 37 28 37 30 0 31 -2 28 -37z m322 -153
c0 -25 18 -25 50 0 18 14 40 20 80 19 103 0 120 -33 120 -244 l0 -155 -29 0
-30 0 -3 156 c-3 150 -4 157 -27 175 -30 25 -82 24 -114 -1 -33 -26 -47 -92
-47 -225 l0 -105 -30 0 -30 0 0 200 0 200 30 0 c23 0 30 -4 30 -20z m80 -947
c19 -7 42 -16 50 -19 8 -3 44 -17 80 -32 58 -25 65 -31 68 -58 l3 -30 -179
-72 c-98 -40 -182 -72 -185 -72 -4 0 -7 13 -7 28 0 26 6 30 145 81 80 30 144
59 142 64 -2 6 -66 34 -143 63 -135 50 -139 53 -142 83 l-3 31 68 -26 c37 -15
84 -33 103 -41z m-70 -1006 c5 -152 6 -160 29 -178 42 -34 103 -19 133 34 8
13 15 77 18 162 l5 140 28 3 27 3 0 -205 0 -206 -30 0 c-23 0 -30 4 -30 20 0
25 -5 25 -42 -1 -36 -26 -127 -30 -154 -8 -42 34 -54 87 -54 240 0 80 3 149 7
153 4 4 19 6 33 4 l25 -3 5 -158z m670 148 c20 -10 30 -23 30 -39 0 -33 -7
-35 -48 -15 -45 23 -83 24 -125 2 -40 -20 -54 -38 -68 -87 -15 -56 -3 -127 30
-166 22 -27 36 -33 78 -37 35 -4 61 0 83 11 18 8 36 13 41 10 18 -11 8 -44
-16 -60 -34 -22 -149 -23 -190 -1 -137 71 -141 306 -7 377 46 24 150 27 192 5z
m447 3 c27 -10 33 -17 33 -40 0 -32 -5 -33 -53 -13 -20 8 -49 15 -64 15 -39 0
-89 -33 -109 -72 -20 -39 -22 -124 -4 -167 26 -63 110 -88 187 -56 45 19 43
20 43 -14 0 -38 -43 -56 -128 -55 -126 3 -187 79 -180 224 3 70 6 83 34 117
17 21 46 46 65 55 40 21 127 24 176 6z m411 -2 c56 -29 92 -92 92 -162 l0 -33
-142 -3 -143 -3 1 -39 c1 -28 9 -46 33 -70 29 -29 36 -31 99 -31 44 1 78 7
100 18 l32 18 0 -35 c0 -31 -4 -36 -37 -47 -54 -17 -162 -16 -198 3 -143 76
-141 320 3 385 38 16 128 16 160 -1z m461 3 c25 -9 31 -16 31 -40 0 -34 4 -33
-50 -14 -23 8 -55 15 -71 15 -64 0 -104 -43 -80 -87 9 -19 70 -43 106 -43 32
0 86 -33 100 -61 30 -57 10 -120 -48 -154 -23 -14 -51 -18 -107 -18 -95 1
-130 14 -130 47 0 31 16 42 36 25 10 -8 45 -13 91 -13 81 -1 103 12 103 61 0
29 -28 46 -110 68 -36 9 -75 26 -87 37 -50 46 -37 135 25 168 42 22 140 27
191 9z m4268 0 c15 -6 37 -15 48 -20 11 -5 45 -18 75 -29 30 -11 64 -25 75
-29 11 -5 46 -19 78 -32 53 -21 57 -25 57 -56 0 -27 -4 -34 -27 -39 -16 -4
-32 -10 -38 -14 -5 -3 -32 -15 -60 -25 -27 -9 -63 -23 -80 -31 -40 -17 -158
-64 -162 -64 -2 0 -3 13 -3 29 0 27 5 31 73 56 159 58 217 83 217 93 0 4 -65
32 -145 61 -140 52 -145 55 -145 83 0 32 0 32 37 17z m-297 -959 c0 -283 2
-290 85 -290 53 0 55 -1 55 -26 0 -26 0 -26 -69 -22 -122 7 -131 28 -131 316
l0 202 -49 0 c-51 0 -67 10 -57 35 4 12 25 15 86 15 l80 0 0 -230z m-4820 184
c0 -6 -24 -58 -90 -199 -25 -55 -66 -143 -91 -195 -82 -176 -93 -195 -116
-198 -13 -2 -23 -1 -23 2 0 6 37 89 80 181 92 196 140 297 165 353 23 50 33
62 52 62 13 0 23 -2 23 -6z m-420 -149 c0 -16 -7 -28 -17 -31 -24 -8 -91 -34
-130 -50 -17 -8 -35 -14 -41 -14 -5 0 -23 -7 -38 -15 -16 -8 -37 -15 -46 -15
-20 0 -29 -12 -20 -26 4 -6 41 -23 82 -38 41 -16 89 -34 107 -42 17 -8 35 -14
40 -14 27 0 63 -27 63 -47 0 -13 -3 -23 -6 -23 -5 0 -101 38 -189 75 -16 6
-63 25 -103 41 -64 26 -72 32 -70 53 3 28 6 29 113 71 44 17 88 35 97 40 10 6
23 10 28 10 6 0 30 8 53 19 35 15 61 26 75 30 1 1 2 -10 2 -24z m1980 -12 c14
-7 31 -13 38 -13 7 0 20 -4 30 -10 9 -5 53 -23 97 -40 107 -42 110 -43 113
-71 2 -21 -6 -27 -70 -53 -40 -16 -86 -35 -103 -41 -88 -37 -184 -75 -189 -75
-15 0 -4 48 12 53 9 4 33 13 52 20 19 8 64 24 100 37 36 12 69 26 75 31 5 5
17 9 26 9 9 0 19 6 22 14 4 10 -13 21 -56 36 -34 13 -73 27 -87 33 -14 6 -52
20 -85 32 -51 18 -60 26 -63 48 -3 26 -2 26 30 15 18 -6 44 -17 58 -25z m730
9 c0 -26 -6 -30 -145 -81 -80 -30 -144 -59 -142 -64 2 -6 57 -30 123 -54 175
-65 164 -59 164 -92 l0 -29 -97 39 c-289 113 -268 102 -271 137 -2 24 1 34 15
38 10 3 27 10 38 14 11 5 56 23 100 40 44 18 105 42 135 55 72 31 80 31 80 -3z
m2200 13 c27 -14 39 -43 24 -57 -3 -4 -17 0 -32 8 -31 16 -99 18 -136 4 -43
-16 -66 -66 -66 -143 0 -77 16 -114 60 -141 35 -20 106 -21 144 -1 37 19 36
19 36 -11 0 -19 -8 -28 -35 -40 -84 -35 -195 -4 -243 68 -22 35 -26 51 -26
122 -1 74 2 87 26 124 16 23 45 50 65 61 47 25 141 28 183 6z m854 0 c66 -28
76 -58 76 -232 l0 -153 -30 0 c-26 0 -30 4 -30 27 l0 26 -22 -20 c-54 -49
-129 -58 -186 -23 -68 42 -79 147 -21 201 30 28 109 49 186 49 39 0 43 2 43
24 0 15 -11 33 -27 46 -25 19 -36 21 -98 17 -38 -3 -80 -9 -92 -12 -19 -6 -23
-3 -23 14 0 45 146 68 224 36z m-5044 -952 c0 -208 2 -231 20 -260 17 -29 25
-32 72 -35 46 -3 53 -6 56 -25 3 -22 0 -23 -61 -23 -50 0 -70 5 -91 21 -47 37
-50 52 -56 284 l-5 220 -47 3 c-40 3 -48 6 -48 23 0 17 7 19 80 19 l80 0 0
-227z m-1400 97 l0 -100 -25 0 -25 0 0 100 0 100 25 0 25 0 0 -100z m140 0 l0
-100 -25 0 -25 0 0 100 0 100 25 0 25 0 0 -100z m2570 -1 l0 -100 -27 3 -28 3
-3 98 -3 97 31 0 30 0 0 -101z m140 0 l0 -100 -27 3 -28 3 -3 98 -3 97 31 0
30 0 0 -101z m430 -1 c17 -57 35 -114 40 -128 5 -14 13 -41 19 -60 5 -19 23
-80 40 -135 17 -55 31 -103 31 -107 0 -5 -16 -8 -35 -8 -30 0 -35 4 -41 27 -3
16 -11 46 -18 68 l-13 40 -98 0 c-110 0 -99 9 -125 -92 -10 -40 -13 -43 -45
-43 -19 0 -35 2 -35 5 0 3 11 42 25 85 26 84 51 165 106 343 l33 107 42 0 43
0 31 -102z m2178 25 l3 -63 74 0 c73 0 75 -1 75 -25 0 -24 -2 -25 -75 -25
l-75 0 0 -128 c0 -158 5 -168 90 -178 51 -6 60 -10 60 -26 0 -19 -6 -20 -80
-16 -120 5 -124 10 -130 196 l-5 147 -52 3 c-48 3 -53 5 -53 27 0 22 5 24 53
27 l52 3 3 50 c4 67 8 77 34 73 21 -3 23 -9 26 -65z m-3618 -3 l0 -60 80 0
c73 0 80 -2 80 -20 0 -22 -19 -29 -100 -32 l-55 -3 -3 -120 c-2 -76 1 -128 9
-141 15 -29 51 -44 104 -44 38 0 45 -3 45 -20 0 -18 -7 -20 -67 -20 -131 0
-153 33 -153 223 l0 127 -42 0 c-51 0 -73 12 -65 34 5 12 20 16 57 16 l50 0 0
60 0 60 30 0 30 0 0 -60z m2441 -98 c8 -18 14 -83 17 -194 l4 -168 -31 0 -31
0 0 160 c0 147 -2 162 -20 180 -11 11 -24 20 -30 20 -5 0 -19 -9 -30 -20 -18
-18 -20 -33 -20 -180 l0 -160 -30 0 -30 0 0 160 c0 147 -2 162 -20 180 -22 22
-29 24 -48 12 -23 -15 -32 -75 -32 -214 l0 -138 -25 0 -25 0 0 200 0 200 24 0
c14 0 28 -5 32 -11 4 -8 9 -8 17 0 17 17 88 13 109 -6 16 -15 20 -15 36 0 39
34 111 23 133 -21z m386 17 c42 -33 71 -92 72 -146 l1 -32 -142 -3 -143 -3 -3
-27 c-7 -60 59 -128 124 -128 17 0 57 9 88 20 l57 19 -3 -32 c-3 -29 -7 -33
-53 -45 -64 -17 -158 -8 -201 18 -47 29 -84 109 -84 179 1 140 97 223 232 200
21 -3 46 -12 55 -20z m456 -1 c37 -26 67 -88 67 -138 l0 -40 -140 0 c-158 0
-159 -1 -140 -68 21 -80 111 -111 208 -73 45 18 53 19 58 6 15 -38 -19 -60
-109 -71 -75 -9 -134 10 -179 57 -84 88 -68 260 29 325 53 35 157 36 206 2z
m1340 3 c46 -26 72 -93 72 -186 0 -101 -22 -149 -85 -182 -86 -45 -192 -17
-229 60 -28 59 -35 125 -21 193 16 75 68 131 127 136 55 5 104 -2 136 -21z
m-5423 3 c55 -33 65 -64 68 -231 l4 -153 -31 0 c-23 0 -31 5 -31 18 0 31 -11
33 -40 8 -58 -48 -171 -41 -209 13 -28 39 -29 122 -1 161 26 37 96 60 182 60
55 0 68 3 68 16 0 42 -53 84 -107 84 -15 0 -50 -7 -77 -15 -63 -19 -66 -19
-66 5 0 32 46 49 133 50 56 0 87 -5 107 -16z m1448 -76 l3 -28 -190 0 -191 0
0 23 c0 13 3 27 7 31 4 3 88 5 187 4 l181 -3 3 -27z m2 -158 l0 -30 -187 2
-188 3 -3 28 -3 27 190 0 191 0 0 -30z"/>
<path d="M1324 6706 c-35 -15 -44 -32 -44 -81 0 -26 7 -39 29 -54 62 -45 139
-12 166 70 9 27 14 56 11 64 -7 19 -118 20 -162 1z"/>
<path d="M2684 6710 c-51 -20 -70 -94 -34 -130 59 -59 155 -25 180 64 19 68
12 76 -62 75 -35 0 -73 -4 -84 -9z"/>
<path d="M3159 6855 c-37 -20 -54 -68 -54 -151 0 -80 15 -119 57 -140 40 -21
64 -17 100 15 32 28 33 33 36 113 4 98 -6 131 -50 158 -39 23 -54 24 -89 5z"/>
<path d="M4049 6855 c-38 -21 -59 -73 -59 -145 0 -74 21 -125 61 -145 36 -19
53 -19 90 1 39 20 59 68 59 144 0 76 -20 124 -59 144 -37 19 -58 20 -92 1z"/>
<path d="M4519 6855 c-38 -20 -59 -73 -59 -144 0 -82 19 -126 65 -148 35 -17
38 -17 73 2 48 26 65 75 59 166 -4 72 -23 109 -63 127 -32 15 -43 15 -75 -3z"/>
<path d="M445 5946 c-37 -16 -51 -33 -60 -69 l-7 -27 111 0 c120 0 123 2 100
54 -12 26 -64 56 -96 56 -10 -1 -32 -7 -48 -14z"/>
<path d="M6750 5803 c-34 -12 -50 -37 -50 -75 0 -67 59 -97 134 -68 30 11 66
77 66 120 l0 30 -67 -1 c-38 0 -75 -3 -83 -6z"/>
<path d="M5788 5028 c-7 -13 -14 -68 -16 -123 l-4 -100 50 -43 c28 -23 54 -42
58 -42 12 0 -4 301 -17 316 -18 22 -57 17 -71 -8z"/>
<path d="M893 5035 c-28 -19 -46 -75 -46 -140 0 -65 18 -121 46 -140 30 -21
80 -19 110 5 63 49 63 221 0 270 -30 24 -80 26 -110 5z"/>
<path d="M1793 2313 c-31 -16 -67 -69 -57 -85 3 -4 52 -8 110 -8 112 0 114 1
94 54 -10 28 -57 56 -92 55 -13 0 -37 -7 -55 -16z"/>
<path d="M6753 1273 c-31 -6 -63 -49 -63 -85 0 -61 72 -96 143 -69 35 14 67
71 67 120 l0 41 -62 -1 c-35 -1 -73 -4 -85 -6z"/>
<path d="M3635 608 c-14 -39 -64 -228 -65 -240 0 -5 34 -8 75 -8 53 0 75 4 75
13 0 6 -12 53 -26 102 -14 50 -28 102 -31 118 -5 28 -20 36 -28 15z"/>
<path d="M4974 509 c-38 -11 -73 -47 -76 -79 -3 -25 -3 -25 101 -28 57 -1 108
1 113 6 12 12 -18 79 -39 90 -31 16 -67 20 -99 11z"/>
<path d="M5421 506 c-37 -13 -68 -48 -73 -81 -3 -19 3 -20 105 -23 117 -3 127
1 108 51 -19 50 -83 74 -140 53z"/>
<path d="M6775 509 c-44 -13 -67 -52 -72 -123 -7 -85 10 -142 50 -166 84 -52
157 10 157 132 0 124 -50 182 -135 157z"/>
<path d="M1335 363 c-38 -10 -55 -34 -55 -79 0 -112 152 -113 195 -1 27 72 21
82 -55 84 -36 0 -74 -1 -85 -4z"/>
<path d="M5 6858 c-3 -8 -4 -79 -3 -158 3 -131 5 -145 21 -148 31 -6 77 19 93
51 36 69 26 193 -19 235 -30 28 -85 40 -92 20z"/>
<path d="M6749 6855 c-73 -40 -80 -224 -10 -282 30 -26 61 -29 100 -8 38 19
56 66 56 145 0 78 -16 120 -54 143 -35 20 -57 21 -92 2z"/>
<path d="M0 4810 l0 -70 31 0 c37 0 65 14 79 41 22 40 -10 75 -82 93 l-28 6 0
-70z"/>
<path d="M4 3990 c0 -80 2 -112 3 -72 2 39 2 105 0 145 -1 39 -3 7 -3 -73z"/>
<path d="M0 2090 l0 -70 33 0 c45 0 77 25 77 59 0 34 -13 46 -68 65 l-42 15 0
-69z"/>
<path d="M0 1297 l0 -65 45 17 c24 9 47 20 51 24 4 4 15 7 25 7 9 0 19 6 22
14 4 10 -13 21 -56 36 -34 13 -68 25 -74 27 -10 4 -13 -12 -13 -60z"/>
<path d="M7 513 c-4 -3 -7 -73 -7 -155 0 -147 0 -148 23 -148 64 1 95 50 96
153 1 78 -19 124 -63 142 -41 17 -40 17 -49 8z"/>
<path d="M87 184 c-16 -14 -41 -24 -58 -24 -29 0 -29 -1 -29 -56 l0 -57 36 6
c62 10 92 57 82 130 l-3 26 -28 -25z"/>
</g>
</svg>
